<svg viewBox="0 0 65 65" fill="none" xmlns="http://www.w3.org/2000/svg"><path d="M65 32.5C65 50.45 50.45 65 32.5 65S0 50.45 0 32.5 14.55 0 32.5 0 65 14.55 65 32.5z" fill="#278CC6"/><path fill-rule="evenodd" clip-rule="evenodd" d="M45.65 45.235a1 1 0 01-1.415 0L20.707 21.707a1 1 0 011.414-1.414L45.65 43.82a1 1 0 010 1.414z" fill="#fff"/><path fill-rule="evenodd" clip-rule="evenodd" d="M19.294 45.235a1 1 0 001.414 0l23.528-23.528a1 1 0 00-1.414-1.414L19.294 43.82a1 1 0 000 1.414z" fill="#fff"/></svg>