<svg width="457" height="39" fill="none" xmlns="http://www.w3.org/2000/svg"><path d="M32.199 31.56c-2.214 0-4.267-.347-6.16-1.04-1.867-.72-3.494-1.733-4.88-3.04a14.273 14.273 0 01-3.2-4.6c-.774-1.787-1.16-3.747-1.16-5.88s.386-4.08 1.16-5.84a14.158 14.158 0 013.2-4.64c1.386-1.307 3.013-2.307 4.88-3 1.893-.72 3.946-1.08 6.16-1.08 2.586 0 4.893.453 6.92 1.36 2.053.907 3.76 2.213 5.12 3.92l-5.04 4.56c-.907-1.067-1.907-1.88-3-2.44-1.067-.56-2.267-.84-3.6-.84-1.147 0-2.2.187-3.16.56-.96.373-1.787.92-2.48 1.64-.667.693-1.2 1.533-1.6 2.52-.374.987-.56 2.08-.56 3.28 0 1.2.186 2.293.56 3.28.4.987.933 1.84 1.6 2.56a7.098 7.098 0 002.48 1.6c.96.373 2.013.56 3.16.56 1.333 0 2.533-.28 3.6-.84 1.093-.56 2.093-1.373 3-2.44l5.04 4.56c-1.36 1.68-3.067 2.987-5.12 3.92-2.027.907-4.334 1.36-6.92 1.36zm27.94-.56v-4.04l-.52-1v-7.44c0-1.2-.374-2.12-1.12-2.76-.72-.667-1.88-1-3.48-1-1.04 0-2.094.173-3.16.52-1.067.32-1.974.773-2.72 1.36l-2.56-5.16c1.226-.8 2.693-1.413 4.4-1.84a20.327 20.327 0 015.16-.68c3.52 0 6.24.813 8.16 2.44 1.946 1.6 2.92 4.12 2.92 7.56V31h-7.08zm-6.4.36c-1.734 0-3.2-.293-4.4-.88-1.2-.587-2.12-1.387-2.76-2.4-.614-1.013-.92-2.147-.92-3.4 0-1.333.333-2.48 1-3.44.693-.987 1.746-1.733 3.16-2.24 1.413-.533 3.24-.8 5.48-.8h5.12v3.96h-4.08c-1.227 0-2.094.2-2.6.6-.48.4-.72.933-.72 1.6s.253 1.2.76 1.6c.506.4 1.2.6 2.08.6.826 0 1.573-.2 2.24-.6.693-.427 1.2-1.067 1.52-1.92l1.04 2.8c-.4 1.493-1.187 2.627-2.36 3.4-1.147.747-2.667 1.12-4.56 1.12zM71.79 31V9.32h22.4V31h-7.56V13.72l1.68 1.64h-10.6l1.64-1.64V31h-7.56zm41.219.36c-1.84 0-3.414-.4-4.72-1.2-1.307-.827-2.307-2.053-3-3.68-.667-1.653-1-3.76-1-6.32 0-2.587.32-4.693.96-6.32.64-1.653 1.6-2.88 2.88-3.68 1.306-.8 2.933-1.2 4.88-1.2 1.973 0 3.76.467 5.36 1.4 1.626.907 2.906 2.2 3.84 3.88.96 1.653 1.44 3.627 1.44 5.92s-.48 4.28-1.44 5.96c-.934 1.68-2.214 2.973-3.84 3.88-1.6.907-3.387 1.36-5.36 1.36zm-13.64 7.4V9.32h7.24V13l-.04 7.16.4 7.2v11.4h-7.6zm12.04-13.44c.853 0 1.613-.2 2.28-.6.693-.4 1.24-.987 1.64-1.76.426-.773.64-1.707.64-2.8 0-1.093-.214-2.027-.64-2.8-.4-.773-.947-1.36-1.64-1.76-.667-.4-1.427-.6-2.28-.6-.854 0-1.627.2-2.32.6-.667.4-1.214.987-1.64 1.76-.4.773-.6 1.707-.6 2.8 0 1.093.2 2.027.6 2.8.426.773.973 1.36 1.64 1.76.693.4 1.466.6 2.32.6zM150.138 31V9.32h7.56V31h-7.56zm-10.44-14.96c2.88.027 5.027.667 6.44 1.92 1.44 1.253 2.16 3.04 2.16 5.36 0 2.4-.826 4.293-2.48 5.68-1.653 1.36-4.013 2.027-7.08 2h-11.44V9.32h7.56v6.72h4.84zm-1.72 9.76c.907 0 1.614-.213 2.12-.64.507-.427.76-1.08.76-1.96 0-.907-.253-1.547-.76-1.92-.48-.373-1.186-.573-2.12-.6h-3.12v5.08l3.12.04zm40.067 5.2l-6.6-10.12 6.12-3.6 9.44 13.72h-8.96zm-15.2 0V9.32h7.6V31h-7.6zm5.36-7.72v-5.96h7.84v5.96h-7.84zm10.12-2.28l-7.12-.72 7.28-10.96h8.04l-8.2 11.68zm11.2 10V9.32h7.56v11.36l9.08-11.36h7V31h-7.6V19.6l-9 11.4h-7.04zm28.75 0V9.32h7.56v8.04h7.8V9.32h7.6V31h-7.6v-7.6h-7.8V31h-7.56zm39.726 0V9.32h7.56v11.36l9.08-11.36h7V31h-7.6V19.6l-9 11.4h-7.04zm45.231 0V13.68l1.64 1.68h-8.64V9.32h21.52v6.04h-8.64l1.68-1.68V31h-7.56zm27.285.36c-2.373 0-4.48-.48-6.32-1.44-1.84-.96-3.293-2.28-4.36-3.96-1.04-1.707-1.56-3.653-1.56-5.84s.52-4.12 1.56-5.8c1.067-1.68 2.52-2.987 4.36-3.92 1.84-.96 3.947-1.44 6.32-1.44 2.374 0 4.48.48 6.32 1.44 1.867.933 3.32 2.24 4.36 3.92 1.04 1.68 1.56 3.613 1.56 5.8s-.52 4.133-1.56 5.84c-1.04 1.68-2.493 3-4.36 3.96-1.84.96-3.946 1.44-6.32 1.44zm0-6.04c.88 0 1.654-.2 2.32-.6.694-.4 1.24-.987 1.64-1.76.4-.8.6-1.747.6-2.84 0-1.093-.2-2.013-.6-2.76-.4-.773-.946-1.36-1.64-1.76-.666-.4-1.44-.6-2.32-.6-.853 0-1.626.2-2.32.6-.666.4-1.213.987-1.64 1.76-.4.747-.6 1.667-.6 2.76 0 1.093.2 2.04.6 2.84.427.773.974 1.36 1.64 1.76.694.4 1.467.6 2.32.6zM360.042 23c-.747.453-1.614.827-2.6 1.12-.987.267-2.134.4-3.44.4-3.014 0-5.294-.667-6.84-2-1.52-1.36-2.28-3.52-2.28-6.48V9.32h7.6v6.2c0 1.227.28 2.093.84 2.6.56.507 1.373.76 2.44.76a8.76 8.76 0 002.28-.28 8.689 8.689 0 001.96-.84l.04 5.24zm-.52 8V9.32h7.56V31h-7.56zm27.898 0l-6.6-10.12 6.12-3.6L396.38 31h-8.96zm-15.2 0V9.32h7.6V31h-7.6zm5.36-7.72v-5.96h7.84v5.96h-7.84zM387.7 21l-7.12-.72 7.28-10.96h8.04L387.7 21zm23.649 10v-4.04l-.52-1v-7.44c0-1.2-.373-2.12-1.12-2.76-.72-.667-1.88-1-3.48-1-1.04 0-2.093.173-3.16.52-1.066.32-1.973.773-2.72 1.36l-2.56-5.16c1.227-.8 2.694-1.413 4.4-1.84a20.335 20.335 0 015.16-.68c3.52 0 6.24.813 8.16 2.44 1.947 1.6 2.92 4.12 2.92 7.56V31h-7.08zm-6.4.36c-1.733 0-3.2-.293-4.4-.88-1.2-.587-2.12-1.387-2.76-2.4-.613-1.013-.92-2.147-.92-3.4 0-1.333.334-2.48 1-3.44.694-.987 1.747-1.733 3.16-2.24 1.414-.533 3.24-.8 5.48-.8h5.12v3.96h-4.08c-1.226 0-2.093.2-2.6.6-.48.4-.72.933-.72 1.6s.254 1.2.76 1.6c.507.4 1.2.6 2.08.6.827 0 1.574-.2 2.24-.6.694-.427 1.2-1.067 1.52-1.92l1.04 2.8c-.4 1.493-1.186 2.627-2.36 3.4-1.146.747-2.666 1.12-4.56 1.12z" fill="#fff"/><circle cx="444.5" cy="19.5" r="12.5" fill="#4EB2EA"/></svg>