<svg width="171" height="171" viewBox="0 0 171 171" fill="none" xmlns="http://www.w3.org/2000/svg">
<path d="M171 85.5C171 132.72 132.72 171 85.5 171C38.2797 171 0 132.72 0 85.5C0 38.2797 38.2797 0 85.5 0C132.72 0 171 38.2797 171 85.5Z" fill="#278CC6"/>
<path d="M71.6562 118.65L48.1673 95.747C45.7705 93.4035 45.7173 89.6218 48.0608 87.225C50.4044 84.8282 54.186 84.7749 56.5829 87.1185L71.5497 101.659L119.806 53.4032C122.149 51.0596 125.984 51.0596 128.328 53.4032C130.671 55.7467 130.671 59.5817 128.328 61.9252L71.6562 118.65Z" fill="white"/>
</svg>
