<svg viewBox="0 0 65 65" fill="none" xmlns="http://www.w3.org/2000/svg">
<path d="M65 32.5C65 50.4493 50.4493 65 32.5 65C14.5507 65 0 50.4493 0 32.5C0 14.5507 14.5507 0 32.5 0C50.4493 0 65 14.5507 65 32.5Z" fill="#278CC6"/>
<path fill-rule="evenodd" clip-rule="evenodd" d="M45.6495 45.2348C45.259 45.6254 44.6258 45.6254 44.2353 45.2348L20.7072 21.7068C20.3167 21.3162 20.3167 20.6831 20.7072 20.2926C21.0977 19.902 21.7309 19.902 22.1214 20.2926L45.6495 43.8206C46.04 44.2111 46.04 44.8443 45.6495 45.2348Z" fill="white"/>
<path fill-rule="evenodd" clip-rule="evenodd" d="M19.294 45.2348C19.6845 45.6254 20.3177 45.6254 20.7082 45.2348L44.2363 21.7068C44.6268 21.3162 44.6268 20.6831 44.2363 20.2926C43.8458 19.902 43.2126 19.902 42.8221 20.2926L19.294 43.8206C18.9035 44.2111 18.9035 44.8443 19.294 45.2348Z" fill="white"/>
</svg>
