<svg width="308" height="25" viewBox="0 0 308 25" fill="none" xmlns="http://www.w3.org/2000/svg">
<path d="M10.0975 19.8464C8.64624 19.8464 7.29991 19.6191 6.05849 19.1644C4.83455 18.6924 3.76798 18.0279 2.85877 17.1712C1.96704 16.3144 1.26765 15.309 0.76059 14.155C0.25353 12.9836 0 11.6984 0 10.2996C0 8.90086 0.25353 7.62447 0.76059 6.47047C1.26765 5.29898 1.96704 4.28486 2.85877 3.42811C3.76798 2.57135 4.83455 1.91567 6.05849 1.46107C7.29991 0.988975 8.64624 0.75293 10.0975 0.75293C11.7935 0.75293 13.3059 1.05017 14.6348 1.64466C15.9811 2.23914 17.1002 3.0959 17.9919 4.21493L14.6872 7.20483C14.0928 6.50544 13.4371 5.97215 12.7202 5.60497C12.0208 5.23779 11.234 5.0542 10.3598 5.0542C9.60791 5.0542 8.91726 5.17659 8.2878 5.42138C7.65835 5.66617 7.11632 6.0246 6.66172 6.49669C6.2246 6.9513 5.8749 7.50207 5.61263 8.14901C5.36784 8.79595 5.24545 9.51283 5.24545 10.2996C5.24545 11.0865 5.36784 11.8033 5.61263 12.4503C5.8749 13.0972 6.2246 13.6567 6.66172 14.1288C7.11632 14.5834 7.65835 14.9331 8.2878 15.1779C8.91726 15.4227 9.60791 15.5451 10.3598 15.5451C11.234 15.5451 12.0208 15.3615 12.7202 14.9943C13.4371 14.6271 14.0928 14.0938 14.6872 13.3945L17.9919 16.3844C17.1002 17.4859 15.9811 18.3427 14.6348 18.9546C13.3059 19.5491 11.7935 19.8464 10.0975 19.8464Z" fill="white"/>
<path d="M28.417 19.4792V16.8302L28.076 16.1745V11.2963C28.076 10.5095 27.8313 9.90623 27.3417 9.4866C26.8696 9.04948 26.109 8.83092 25.0599 8.83092C24.378 8.83092 23.6874 8.94457 22.988 9.17187C22.2886 9.38169 21.6941 9.67893 21.2045 10.0636L19.526 6.68028C20.3303 6.15574 21.2919 5.75359 22.411 5.47383C23.5475 5.17659 24.6752 5.02797 25.7943 5.02797C28.1023 5.02797 29.8857 5.56126 31.1446 6.62783C32.421 7.67692 33.0592 9.32924 33.0592 11.5848V19.4792H28.417ZM24.2206 19.7152C23.0841 19.7152 22.1225 19.5229 21.3356 19.1382C20.5488 18.7536 19.9456 18.229 19.526 17.5646C19.1238 16.9002 18.9227 16.1571 18.9227 15.3353C18.9227 14.461 19.1413 13.7092 19.5784 13.0797C20.033 12.4328 20.7237 11.9432 21.6504 11.611C22.5771 11.2613 23.7748 11.0865 25.2435 11.0865H28.6006V13.683H25.9254C25.1211 13.683 24.5529 13.8141 24.2206 14.0764C23.9059 14.3386 23.7485 14.6883 23.7485 15.1255C23.7485 15.5626 23.9147 15.9123 24.2469 16.1745C24.5791 16.4368 25.0337 16.568 25.6107 16.568C26.1527 16.568 26.6423 16.4368 27.0794 16.1745C27.534 15.8948 27.8662 15.4751 28.076 14.9156L28.7579 16.7515C28.4957 17.7307 27.9799 18.4738 27.2105 18.9809C26.4587 19.4704 25.4621 19.7152 24.2206 19.7152Z" fill="white"/>
<path d="M36.0571 19.4792V5.26401H50.7444V19.4792H45.7874V8.14901L46.889 9.22433H39.9387L41.0141 8.14901V19.4792H36.0571Z" fill="white"/>
<path d="M63.083 19.7152C61.8766 19.7152 60.845 19.4529 59.9882 18.9284C59.1315 18.3864 58.4758 17.5821 58.0212 16.5155C57.5841 15.4314 57.3655 14.0501 57.3655 12.3716C57.3655 10.6756 57.5753 9.29427 57.995 8.22769C58.4146 7.14363 59.044 6.33933 59.8833 5.81479C60.7401 5.29024 61.8066 5.02797 63.083 5.02797C64.3769 5.02797 65.5484 5.33395 66.5975 5.94592C67.6641 6.54041 68.5033 7.38842 69.1153 8.48996C69.7448 9.57402 70.0595 10.8679 70.0595 12.3716C70.0595 13.8753 69.7448 15.1779 69.1153 16.2795C68.5033 17.381 67.6641 18.229 66.5975 18.8235C65.5484 19.418 64.3769 19.7152 63.083 19.7152ZM54.1396 24.5673V5.26401H58.8867V7.67692L58.8605 12.3716L59.1227 17.0925V24.5673H54.1396ZM62.034 15.7549C62.5935 15.7549 63.0918 15.6238 63.5289 15.3615C63.9835 15.0992 64.3419 14.7146 64.6042 14.2075C64.884 13.7004 65.0239 13.0885 65.0239 12.3716C65.0239 11.6547 64.884 11.0427 64.6042 10.5357C64.3419 10.0286 63.9835 9.64396 63.5289 9.38169C63.0918 9.11942 62.5935 8.98828 62.034 8.98828C61.4744 8.98828 60.9674 9.11942 60.5128 9.38169C60.0756 9.64396 59.7172 10.0286 59.4375 10.5357C59.1752 11.0427 59.044 11.6547 59.044 12.3716C59.044 13.0885 59.1752 13.7004 59.4375 14.2075C59.7172 14.7146 60.0756 15.0992 60.5128 15.3615C60.9674 15.6238 61.4744 15.7549 62.034 15.7549Z" fill="white"/>
<path d="M87.4283 19.4792V5.26401H92.3852V19.4792H87.4283ZM80.583 9.67019C82.4713 9.68767 83.8788 10.1073 84.8055 10.9291C85.7497 11.7509 86.2218 12.9224 86.2218 14.4435C86.2218 16.0172 85.6798 17.2586 84.5957 18.1678C83.5117 19.0595 81.9642 19.4967 79.9535 19.4792H72.4525V5.26401H77.4095V9.67019H80.583ZM79.4552 16.0696C80.0497 16.0696 80.513 15.9298 80.8452 15.65C81.1774 15.3702 81.3435 14.9419 81.3435 14.3649C81.3435 13.7704 81.1774 13.3507 80.8452 13.106C80.5305 12.8612 80.0672 12.73 79.4552 12.7125H77.4095V16.0434L79.4552 16.0696Z" fill="white"/>
<path d="M105.726 19.4792L101.399 12.8437L105.412 10.4832L111.601 19.4792H105.726ZM95.7599 19.4792V5.26401H100.743V19.4792H95.7599ZM99.2744 14.4173V10.5095H104.415V14.4173H99.2744ZM105.91 12.9224L101.241 12.4503L106.015 5.26401H111.286L105.91 12.9224Z" fill="white"/>
<path d="M113.253 19.4792V5.26401H118.21V12.7125L124.164 5.26401H128.754V19.4792H123.77V12.0044L117.869 19.4792H113.253Z" fill="white"/>
<path d="M132.104 19.4792V5.26401H137.061V10.5357H142.175V5.26401H147.159V19.4792H142.175V14.496H137.061V19.4792H132.104Z" fill="white"/>
<path d="M156.473 13.4731V10.5095H169.587V13.4731H156.473Z" fill="white"/>
<path d="M178.898 19.4792V5.26401H183.855V12.7125L189.809 5.26401H194.398V19.4792H189.415V12.0044L183.514 19.4792H178.898Z" fill="white"/>
<path d="M208.555 19.4792V8.12278L209.63 9.22433H203.965V5.26401H218.076V9.22433H212.41L213.512 8.12278V19.4792H208.555Z" fill="white"/>
<path d="M226.445 19.7152C224.889 19.7152 223.508 19.4005 222.302 18.771C221.095 18.1416 220.142 17.2761 219.443 16.1745C218.761 15.0555 218.42 13.7791 218.42 12.3454C218.42 10.9116 218.761 9.64396 219.443 8.54242C220.142 7.44087 221.095 6.58412 222.302 5.97215C223.508 5.3427 224.889 5.02797 226.445 5.02797C228.002 5.02797 229.383 5.3427 230.589 5.97215C231.813 6.58412 232.766 7.44087 233.448 8.54242C234.13 9.64396 234.471 10.9116 234.471 12.3454C234.471 13.7791 234.13 15.0555 233.448 16.1745C232.766 17.2761 231.813 18.1416 230.589 18.771C229.383 19.4005 228.002 19.7152 226.445 19.7152ZM226.445 15.7549C227.022 15.7549 227.53 15.6238 227.967 15.3615C228.421 15.0992 228.78 14.7146 229.042 14.2075C229.304 13.683 229.435 13.0622 229.435 12.3454C229.435 11.6285 229.304 11.0253 229.042 10.5357C228.78 10.0286 228.421 9.64396 227.967 9.38169C227.53 9.11942 227.022 8.98828 226.445 8.98828C225.886 8.98828 225.379 9.11942 224.924 9.38169C224.487 9.64396 224.129 10.0286 223.849 10.5357C223.587 11.0253 223.456 11.6285 223.456 12.3454C223.456 13.0622 223.587 13.683 223.849 14.2075C224.129 14.7146 224.487 15.0992 224.924 15.3615C225.379 15.6238 225.886 15.7549 226.445 15.7549Z" fill="white"/>
<path d="M245.804 14.2337C245.314 14.531 244.746 14.7758 244.099 14.9681C243.452 15.1429 242.7 15.2304 241.844 15.2304C239.868 15.2304 238.373 14.7932 237.359 13.919C236.362 13.0273 235.864 11.611 235.864 9.67019V5.26401H240.847V9.32923C240.847 10.1335 241.031 10.7018 241.398 11.034C241.765 11.3662 242.298 11.5323 242.998 11.5323C243.54 11.5323 244.038 11.4711 244.493 11.3487C244.965 11.2089 245.393 11.0253 245.778 10.798L245.804 14.2337ZM245.463 19.4792V5.26401H250.42V19.4792H245.463Z" fill="white"/>
<path d="M263.756 19.4792L259.428 12.8437L263.441 10.4832L269.63 19.4792H263.756ZM253.789 19.4792V5.26401H258.772V19.4792H253.789ZM257.304 14.4173V10.5095H262.444V14.4173H257.304ZM263.939 12.9224L259.271 12.4503L264.044 5.26401H269.316L263.939 12.9224Z" fill="white"/>
<path d="M279.445 19.4792V16.8302L279.104 16.1745V11.2963C279.104 10.5095 278.86 9.90623 278.37 9.4866C277.898 9.04948 277.137 8.83092 276.088 8.83092C275.406 8.83092 274.716 8.94457 274.016 9.17187C273.317 9.38169 272.722 9.67893 272.233 10.0636L270.554 6.68028C271.359 6.15574 272.32 5.75359 273.439 5.47383C274.576 5.17659 275.704 5.02797 276.823 5.02797C279.131 5.02797 280.914 5.56126 282.173 6.62783C283.449 7.67692 284.088 9.32924 284.088 11.5848V19.4792H279.445ZM275.249 19.7152C274.113 19.7152 273.151 19.5229 272.364 19.1382C271.577 18.7536 270.974 18.229 270.554 17.5646C270.152 16.9002 269.951 16.1571 269.951 15.3353C269.951 14.461 270.17 13.7092 270.607 13.0797C271.061 12.4328 271.752 11.9432 272.679 11.611C273.605 11.2613 274.803 11.0865 276.272 11.0865H279.629V13.683H276.954C276.15 13.683 275.581 13.8141 275.249 14.0764C274.934 14.3386 274.777 14.6883 274.777 15.1255C274.777 15.5626 274.943 15.9123 275.275 16.1745C275.607 16.4368 276.062 16.568 276.639 16.568C277.181 16.568 277.671 16.4368 278.108 16.1745C278.562 15.8948 278.895 15.4751 279.104 14.9156L279.786 16.7515C279.524 17.7307 279.008 18.4738 278.239 18.9809C277.487 19.4704 276.49 19.7152 275.249 19.7152Z" fill="white"/>
<circle cx="299.804" cy="11.9392" r="8.19601" fill="#4EB2EA"/>
</svg>
