<svg width="457" height="39" viewBox="0 0 457 39" fill="none" xmlns="http://www.w3.org/2000/svg">
<path d="M32.1986 31.56C29.9853 31.56 27.9319 31.2133 26.0386 30.52C24.1719 29.8 22.5453 28.7867 21.1586 27.48C19.7986 26.1733 18.7319 24.64 17.9586 22.88C17.1853 21.0933 16.7986 19.1333 16.7986 17C16.7986 14.8667 17.1853 12.92 17.9586 11.16C18.7319 9.37333 19.7986 7.82667 21.1586 6.52C22.5453 5.21333 24.1719 4.21333 26.0386 3.52C27.9319 2.8 29.9853 2.44 32.1986 2.44C34.7853 2.44 37.0919 2.89333 39.1186 3.8C41.1719 4.70667 42.8786 6.01333 44.2386 7.72L39.1986 12.28C38.2919 11.2133 37.2919 10.4 36.1986 9.84C35.1319 9.28 33.9319 9 32.5986 9C31.4519 9 30.3986 9.18667 29.4386 9.56C28.4786 9.93333 27.6519 10.48 26.9586 11.2C26.2919 11.8933 25.7586 12.7333 25.3586 13.72C24.9853 14.7067 24.7986 15.8 24.7986 17C24.7986 18.2 24.9853 19.2933 25.3586 20.28C25.7586 21.2667 26.2919 22.12 26.9586 22.84C27.6519 23.5333 28.4786 24.0667 29.4386 24.44C30.3986 24.8133 31.4519 25 32.5986 25C33.9319 25 35.1319 24.72 36.1986 24.16C37.2919 23.6 38.2919 22.7867 39.1986 21.72L44.2386 26.28C42.8786 27.96 41.1719 29.2667 39.1186 30.2C37.0919 31.1067 34.7853 31.56 32.1986 31.56ZM60.1383 31V26.96L59.6183 25.96V18.52C59.6183 17.32 59.2449 16.4 58.4983 15.76C57.7783 15.0933 56.6183 14.76 55.0183 14.76C53.9783 14.76 52.9249 14.9333 51.8583 15.28C50.7916 15.6 49.8849 16.0533 49.1383 16.64L46.5783 11.48C47.8049 10.68 49.2716 10.0667 50.9783 9.64C52.7116 9.18667 54.4316 8.96 56.1383 8.96C59.6583 8.96 62.3783 9.77333 64.2983 11.4C66.2449 13 67.2183 15.52 67.2183 18.96V31H60.1383ZM53.7383 31.36C52.0049 31.36 50.5383 31.0667 49.3383 30.48C48.1383 29.8933 47.2183 29.0933 46.5783 28.08C45.9649 27.0667 45.6583 25.9333 45.6583 24.68C45.6583 23.3467 45.9916 22.2 46.6583 21.24C47.3516 20.2533 48.4049 19.5067 49.8183 19C51.2316 18.4667 53.0583 18.2 55.2983 18.2H60.4183V22.16H56.3383C55.1116 22.16 54.2449 22.36 53.7383 22.76C53.2583 23.16 53.0183 23.6933 53.0183 24.36C53.0183 25.0267 53.2716 25.56 53.7783 25.96C54.2849 26.36 54.9783 26.56 55.8583 26.56C56.6849 26.56 57.4316 26.36 58.0983 25.96C58.7916 25.5333 59.2983 24.8933 59.6183 24.04L60.6583 26.84C60.2583 28.3333 59.4716 29.4667 58.2983 30.24C57.1516 30.9867 55.6316 31.36 53.7383 31.36ZM71.7905 31V9.32H94.1905V31H86.6305V13.72L88.3105 15.36H77.7105L79.3505 13.72V31H71.7905ZM113.009 31.36C111.169 31.36 109.595 30.96 108.289 30.16C106.982 29.3333 105.982 28.1067 105.289 26.48C104.622 24.8267 104.289 22.72 104.289 20.16C104.289 17.5733 104.609 15.4667 105.249 13.84C105.889 12.1867 106.849 10.96 108.129 10.16C109.435 9.36 111.062 8.96 113.009 8.96C114.982 8.96 116.769 9.42667 118.369 10.36C119.995 11.2667 121.275 12.56 122.209 14.24C123.169 15.8933 123.649 17.8667 123.649 20.16C123.649 22.4533 123.169 24.44 122.209 26.12C121.275 27.8 119.995 29.0933 118.369 30C116.769 30.9067 114.982 31.36 113.009 31.36ZM99.3686 38.76V9.32H106.609V13L106.569 20.16L106.969 27.36V38.76H99.3686ZM111.409 25.32C112.262 25.32 113.022 25.12 113.689 24.72C114.382 24.32 114.929 23.7333 115.329 22.96C115.755 22.1867 115.969 21.2533 115.969 20.16C115.969 19.0667 115.755 18.1333 115.329 17.36C114.929 16.5867 114.382 16 113.689 15.6C113.022 15.2 112.262 15 111.409 15C110.555 15 109.782 15.2 109.089 15.6C108.422 16 107.875 16.5867 107.449 17.36C107.049 18.1333 106.849 19.0667 106.849 20.16C106.849 21.2533 107.049 22.1867 107.449 22.96C107.875 23.7333 108.422 24.32 109.089 24.72C109.782 25.12 110.555 25.32 111.409 25.32ZM150.138 31V9.32H157.698V31H150.138ZM139.698 16.04C142.578 16.0667 144.725 16.7067 146.138 17.96C147.578 19.2133 148.298 21 148.298 23.32C148.298 25.72 147.472 27.6133 145.818 29C144.165 30.36 141.805 31.0267 138.738 31H127.298V9.32H134.858V16.04H139.698ZM137.978 25.8C138.885 25.8 139.592 25.5867 140.098 25.16C140.605 24.7333 140.858 24.08 140.858 23.2C140.858 22.2933 140.605 21.6533 140.098 21.28C139.618 20.9067 138.912 20.7067 137.978 20.68H134.858V25.76L137.978 25.8ZM178.045 31L171.445 20.88L177.565 17.28L187.005 31H178.045ZM162.845 31V9.32H170.445V31H162.845ZM168.205 23.28V17.32H176.045V23.28H168.205ZM178.325 21L171.205 20.28L178.485 9.32H186.525L178.325 21ZM189.525 31V9.32H197.085V20.68L206.165 9.32H213.165V31H205.565V19.6L196.565 31H189.525ZM218.275 31V9.32H225.835V17.36H233.635V9.32H241.235V31H233.635V23.4H225.835V31H218.275ZM258.001 31V9.32H265.561V20.68L274.641 9.32H281.641V31H274.041V19.6L265.041 31H258.001ZM303.232 31V13.68L304.872 15.36H296.232V9.32H317.752V15.36H309.112L310.792 13.68V31H303.232ZM330.517 31.36C328.144 31.36 326.037 30.88 324.197 29.92C322.357 28.96 320.904 27.64 319.837 25.96C318.797 24.2533 318.277 22.3067 318.277 20.12C318.277 17.9333 318.797 16 319.837 14.32C320.904 12.64 322.357 11.3333 324.197 10.4C326.037 9.44 328.144 8.96 330.517 8.96C332.891 8.96 334.997 9.44 336.837 10.4C338.704 11.3333 340.157 12.64 341.197 14.32C342.237 16 342.757 17.9333 342.757 20.12C342.757 22.3067 342.237 24.2533 341.197 25.96C340.157 27.64 338.704 28.96 336.837 29.92C334.997 30.88 332.891 31.36 330.517 31.36ZM330.517 25.32C331.397 25.32 332.171 25.12 332.837 24.72C333.531 24.32 334.077 23.7333 334.477 22.96C334.877 22.16 335.077 21.2133 335.077 20.12C335.077 19.0267 334.877 18.1067 334.477 17.36C334.077 16.5867 333.531 16 332.837 15.6C332.171 15.2 331.397 15 330.517 15C329.664 15 328.891 15.2 328.197 15.6C327.531 16 326.984 16.5867 326.557 17.36C326.157 18.1067 325.957 19.0267 325.957 20.12C325.957 21.2133 326.157 22.16 326.557 22.96C326.984 23.7333 327.531 24.32 328.197 24.72C328.891 25.12 329.664 25.32 330.517 25.32ZM360.042 23C359.295 23.4533 358.428 23.8267 357.442 24.12C356.455 24.3867 355.308 24.52 354.002 24.52C350.988 24.52 348.708 23.8533 347.162 22.52C345.642 21.16 344.882 19 344.882 16.04V9.32H352.482V15.52C352.482 16.7467 352.762 17.6133 353.322 18.12C353.882 18.6267 354.695 18.88 355.762 18.88C356.588 18.88 357.348 18.7867 358.042 18.6C358.762 18.3867 359.415 18.1067 360.002 17.76L360.042 23ZM359.522 31V9.32H367.082V31H359.522ZM387.42 31L380.82 20.88L386.94 17.28L396.38 31H387.42ZM372.22 31V9.32H379.82V31H372.22ZM377.58 23.28V17.32H385.42V23.28H377.58ZM387.7 21L380.58 20.28L387.86 9.32H395.9L387.7 21ZM411.349 31V26.96L410.829 25.96V18.52C410.829 17.32 410.456 16.4 409.709 15.76C408.989 15.0933 407.829 14.76 406.229 14.76C405.189 14.76 404.136 14.9333 403.069 15.28C402.003 15.6 401.096 16.0533 400.349 16.64L397.789 11.48C399.016 10.68 400.483 10.0667 402.189 9.64C403.923 9.18667 405.643 8.96 407.349 8.96C410.869 8.96 413.589 9.77333 415.509 11.4C417.456 13 418.429 15.52 418.429 18.96V31H411.349ZM404.949 31.36C403.216 31.36 401.749 31.0667 400.549 30.48C399.349 29.8933 398.429 29.0933 397.789 28.08C397.176 27.0667 396.869 25.9333 396.869 24.68C396.869 23.3467 397.203 22.2 397.869 21.24C398.563 20.2533 399.616 19.5067 401.029 19C402.443 18.4667 404.269 18.2 406.509 18.2H411.629V22.16H407.549C406.323 22.16 405.456 22.36 404.949 22.76C404.469 23.16 404.229 23.6933 404.229 24.36C404.229 25.0267 404.483 25.56 404.989 25.96C405.496 26.36 406.189 26.56 407.069 26.56C407.896 26.56 408.643 26.36 409.309 25.96C410.003 25.5333 410.509 24.8933 410.829 24.04L411.869 26.84C411.469 28.3333 410.683 29.4667 409.509 30.24C408.363 30.9867 406.843 31.36 404.949 31.36Z" fill="white"/>
<circle cx="444.5" cy="19.5" r="12.5" fill="#4EB2EA"/>
</svg>
